#!OML:ASF E:\motion texture\Top Level 1\Subject 1\Session 1\male.ASF
:FULLY-SPECIFIED
:DEGREES
466
root -14.406 17.9694 2.38325 183.786 -81.4679 -177.441
lowerback -2.14997 -2.67072 -1.54528
upperback -2.18682 -3.56599 1.42413
thorax -0.854455 -1.76946 2.27061
lowerneck -14.6174 -8.66666 -10.9591
upperneck 11.3456 -10.7825 8.70717
head 6.93012 -5.01837 3.39314
rclavicle 2.13041e-014 -1.98785e-015
rhumerus -24.1903 15.4287 -89.3161
rradius 86.0809
rwrist 23.6125
rhand -26.9916 -19.8872
rfingers 7.12502
rthumb -0.41202 -409.867
lclavicle 2.13041e-014 -1.98785e-015
lhumerus -27.5523 -18.7544 96.531
lradius 59.2294
lwrist 6.45244
lhand -11.727 35.6752
lfingers 7.12502
lthumb 14.3201 65.1614
rfemur -33.3989 -3.65367 19.6815
rtibia 38.6576
rfoot -3.53225 -19.0981
rtoes 10.2225
lfemur -3.45481 -1.94454 -21.4376
ltibia 13.2967
lfoot -11.4937 -0.00541708
ltoes 0.449423
467
root -14.5308 17.9583 2.37365 184.098 -81.5661 -177.643
lowerback -2.1876 -2.72386 -1.60793
upperback -2.19618 -3.63591 1.43813
thorax -0.834844 -1.80393 2.31678
lowerneck -14.6472 -8.65354 -10.9283
upperneck 11.2377 -10.7649 8.74129
head 6.89892 -5.00552 3.40166
rclavicle -4.72207e-014 5.96354e-015
rhumerus -23.8627 15.6585 -89.068
rradius 86.8702
rwrist 23.8863
rhand -27.1498 -19.845
rfingers 7.12502
rthumb -0.564808 -409.824
lclavicle -4.72207e-014 5.96354e-015
lhumerus -27.1245 -19.6714 96.8677
lradius 60.1844
lwrist 6.9314
lhand -11.6946 35.8562
lfingers 7.12502
lthumb 14.3513 65.3402
rfemur -33.5937 -3.63485 19.6849
rtibia 36.898
rfoot -3.62984 -18.9361
rtoes 10.0113
lfemur -3.13432 -1.91928 -21.5223
ltibia 13.333
lfoot -11.8112 -0.0615083
ltoes 0.216403
468
root -14.656 17.9468 2.36325 184.396 -81.6676 -177.827
lowerback -2.22688 -2.77676 -1.66652
upperback -2.20645 -3.70554 1.45255
thorax -0.81532 -1.83831 2.36097
lowerneck -14.675 -8.64155 -10.8988
upperneck 11.1267 -10.7485 8.77525
head 6.86665 -4.99346 3.41024
rclavicle 7.00716e-015 -9.14409e-015
rhumerus -23.5048 15.8932 -88.8057
rradius 87.6514
rwrist 24.1582
rhand -27.3143 -19.8125
rfingers 7.12502
rthumb -0.723647 -409.791
lclavicle 7.00716e-015 -9.14409e-015
lhumerus -26.6645 -20.5781 97.1867
lradius 61.1393
lwrist 7.40294
lhand -11.6658 36.0279
lfingers 7.12502
lthumb 14.3791 65.5098
rfemur -33.7642 -3.59921 19.6896
rtibia 35.1724
rfoot -3.70465 -18.7752
rtoes 9.77473
lfemur -2.82834 -1.89688 -21.5987
ltibia 13.3931
lfoot -12.1248 -0.119295
ltoes -0.0367403
469
root -14.7818 17.9351 2.352 184.672 -81.7727 -177.987
lowerback -2.26779 -2.82954 -1.72071
upperback -2.21754 -3.77503 1.46792
thorax -0.795777 -1.87269 2.40353
lowerneck -14.6997 -8.63049 -10.8705
upperneck 11.0125 -10.7333 8.80923
head 6.833 -4.98214 3.41899
rclavicle -3.76883e-014 -1.98785e-015
rhumerus -23.1163 16.1313 -88.5282
rradius 88.424
rwrist 24.4282
rhand -27.4854 -19.7872
rfingers 7.12502
rthumb -0.888855 -409.765
lclavicle -3.76883e-014 -1.98785e-015
lhumerus -26.1704 -21.475 97.4879
lradius 62.0894
lwrist 7.86702
lhand -11.6426 36.1906
lfingers 7.12502
lthumb 14.4014 65.671
rfemur -33.9096 -3.54641 19.6966
rtibia 33.4904
rfoot -3.76108 -18.6198
rtoes 9.51188
lfemur -2.53623 -1.87658 -21.6655
ltibia 13.4784
lfoot -12.4323 -0.179311
ltoes -0.310091
470
root -14.9082 17.923 2.3399 184.92 -81.8818 -178.119
lowerback -2.31081 -2.88276 -1.76948
upperback -2.2292 -3.84515 1.48458
thorax -0.775704 -1.90747 2.44416
lowerneck -14.7219 -8.62007 -10.8423
upperneck 10.8957 -10.7187 8.84151
head 6.79809 -4.97141 3.42721
rclavicle 2.423e-014 1.19271e-015
rhumerus -22.6959 16.3724 -88.2354
rradius 89.1875
rwrist 24.6963
rhand -27.6627 -19.7729
rfingers 7.12502
rthumb -1.0601 -409.75
lclavicle 2.423e-014 1.19271e-015
lhumerus -25.6408 -22.3604 97.77
lradius 63.0324
lwrist 8.32403
lhand -11.6248 36.345
lfingers 7.12502
lthumb 14.4185 65.8242
rfemur -34.0317 -3.47669 19.7065
rtibia 31.8642
rfoot -3.80383 -18.4697
rtoes 9.2301
lfemur -2.25968 -1.85855 -21.7214
ltibia 13.5923
lfoot -12.7331 -0.24239
ltoes -0.608663
471
root -15.0353 17.9109 2.32696 185.145 -81.9966 -178.226
lowerback -2.35279 -2.93669 -1.81394
upperback -2.24225 -3.91629 1.5027
thorax -0.75763 -1.94279 2.48389
lowerneck -14.7407 -8.60997 -10.817
upperneck 10.7776 -10.7044 8.87435
head 6.76243 -4.96103 3.43614
rclavicle -2.91716e-014 1.70955e-014
rhumerus -22.2447 16.6148 -87.9258
rradius 89.9416
rwrist 24.9609
rhand -27.8455 -19.7707
rfingers 7.12502
rthumb -1.2367 -409.747
lclavicle -2.91716e-014 1.70955e-014
lhumerus -25.0757 -23.2338 98.0347
lradius 63.9649
lwrist 8.77199
lhand -11.607 36.5003
lfingers 7.12502
lthumb 14.4357 65.9783
rfemur -34.1283 -3.38892 19.7161
rtibia 30.2959
rfoot -3.82432 -18.3241
rtoes 8.96452
lfemur -1.99678 -1.84392 -21.7674
ltibia 13.7342
lfoot -13.0242 -0.310497
ltoes -0.931535
472
root -15.1632 17.8988 2.31322 185.328 -82.1161 -178.291
lowerback -2.39546 -2.99115 -1.85062
upperback -2.25604 -3.98825 1.52274
thorax -0.740101 -1.97862 2.52111
lowerneck -14.7559 -8.60083 -10.7915
upperneck 10.6583 -10.6912 8.90404
head 6.72574 -4.95158 3.444
rclavicle 4.33351e-014 -4.96962e-015
rhumerus -21.7619 16.8563 -87.599
rradius 90.6858
rwrist 25.2241
rhand -28.0333 -19.7794
rfingers 7.12502
rthumb -1.41812 -409.754
lclavicle 4.33351e-014 -4.96962e-015
lhumerus -24.4719 -24.0947 98.2805
lradius 64.8811
lwrist 9.21169
lhand -11.597 36.639
lfingers 7.12502
lthumb 14.4453 66.1163
rfemur -34.2015 -3.28025 19.727
rtibia 28.7891
rfoot -3.8053 -18.1896
rtoes 8.72347
lfemur -1.74988 -1.83361 -21.8007
ltibia 13.9092
lfoot -13.3045 -0.383246
ltoes -1.27672
473
root -15.2919 17.8867 2.29866 185.463 -82.2411 -178.309
lowerback -2.43872 -3.04686 -1.87897
upperback -2.27123 -4.06204 1.54537
thorax -0.72383 -2.01544 2.55622
lowerneck -14.7669 -8.59176 -10.7671
upperneck 10.5384 -10.6779 8.93165
head 6.68812 -4.94249 3.45151
rclavicle -3.70423e-014 3.97569e-016
rhumerus -21.2475 17.098 -87.2549
rradius 91.4198
rwrist 25.4828
rhand -28.2296 -19.8012
rfingers 7.12502
rthumb -1.60764 -409.775
lclavicle -3.70423e-014 3.97569e-016
lhumerus -23.8299 -24.9408 98.5079
lradius 65.7801
lwrist 9.64323
lhand -11.5907 36.7779
lfingers 7.12502
lthumb 14.4514 66.2548
rfemur -34.2538 -3.15085 19.7394
rtibia 27.3499
rfoot -3.75099 -18.0703
rtoes 8.4869
lfemur -1.52032 -1.82885 -21.8203
ltibia 14.1189
lfoot -13.5713 -0.462765
ltoes -1.65207
474
root -15.4215 17.8748 2.28334 185.533 -82.3712 -178.26
lowerback -2.48209 -3.10371 -1.89645
upperback -2.28747 -4.13754 1.57126
thorax -0.70887 -2.05323 2.58852
lowerneck -14.7775 -8.58234 -10.7437
upperneck 10.4216 -10.664 8.95718
head 6.6513 -4.93329 3.45856
rclavicle -5.41999e-014 -3.97569e-015
rhumerus -20.7009 17.3373 -86.8932
rradius 92.1427
rwrist 25.7373
rhand -28.434 -19.8373
rfingers 7.12502
rthumb -1.80512 -409.809
lclavicle -5.41999e-014 -3.97569e-015
lhumerus -23.1479 -25.7712 98.7169
lradius 66.6583
lwrist 10.0689
lhand -11.5879 36.9125
lfingers 7.12502
lthumb 14.4541 66.3892
rfemur -34.2864 -2.99988 19.7549
rtibia 25.9875
rfoot -3.67791 -17.9696
rtoes 8.25355
lfemur -1.31059 -1.82806 -21.8231
ltibia 14.3683
lfoot -13.8229 -0.551047
ltoes -2.06494
475
root -15.5521 17.8634 2.26733 185.529 -82.5026 -178.14
lowerback -2.52542 -3.16057 -1.9016
upperback -2.30351 -4.21328 1.60032
thorax -0.694231 -2.09129 2.6171
lowerneck -14.7857 -8.57356 -10.7184
upperneck 10.3046 -10.6507 8.9776
head 6.61373 -4.92483 3.46367
rclavicle -4.96837e-014 -1.98785e-015
rhumerus -20.1211 17.5718 -86.5133
rradius 92.8539
rwrist 25.9884
rhand -28.6461 -19.8904
rfingers 7.12502
rthumb -2.00994 -409.861
lclavicle -4.96837e-014 -1.98785e-015
lhumerus -22.4224 -26.587 98.9059
lradius 67.5118
lwrist 10.4914
lhand -11.5881 37.0452
lfingers 7.12502
lthumb 14.4539 66.5218
rfemur -34.3014 -2.82728 19.7756
rtibia 24.7103
rfoot -3.57559 -17.8827
rtoes 8.06093
lfemur -1.11923 -1.83 -21.809
ltibia 14.6575
lfoot -14.0563 -0.647412
ltoes -2.51645
476
root -15.6837 17.8524 2.25063 185.428 -82.6346 -177.924
lowerback -2.568 -3.21775 -1.89152
upperback -2.32059 -4.28978 1.63354
thorax -0.681731 -2.12989 2.64142
lowerneck -14.7914 -8.56375 -10.6945
upperneck 10.1903 -10.6359 8.99604
head 6.57642 -4.91596 3.46861
rclavicle -2.32019e-014 -1.23246e-014
rhumerus -19.5098 17.8015 -86.1164
rradius 93.5514
rwrist 26.2352
rhand -28.8702 -19.9545
rfingers 7.12502
rthumb -2.22633 -409.923
lclavicle -2.32019e-014 -1.23246e-014
lhumerus -21.6576 -27.3827 99.0767
lradius 68.3395
lwrist 10.9093
lhand -11.5906 37.1773
lfingers 7.12502
lthumb 14.4515 66.6542
rfemur -34.3001 -2.63429 19.8058
rtibia 23.5258
rfoot -3.44974 -17.816
rtoes 7.91161
lfemur -0.948582 -1.83154 -21.7741
ltibia 14.9906
lfoot -14.2683 -0.757095
ltoes -3.00409
